<svg width="405" height="123" viewBox="0 0 405 123" fill="none" xmlns="http://www.w3.org/2000/svg">
<g clip-path="url(#clip0_5292_17309)">
<path d="M38.2996 -0.00146484C38.1234 -0.00146484 37.9401 -0.00146484 37.7639 0.00557499C37.5948 -0.00146484 37.4185 -0.00146484 37.2494 -0.00146484C33.3306 -0.00146484 29.5458 0.709558 26.0006 2.01897C25.0561 2.37096 24.1258 2.76519 23.2166 3.20166C20.6369 4.42659 18.1983 5.98943 15.9429 7.83387C9.98721 12.7054 5.3002 19.5693 2.58667 27.6017C2.2695 28.5451 1.98053 29.5025 1.71975 30.481C0.782343 33.9446 0.211444 37.5983 0.0493369 41.3787C0.0140963 42.1249 0 42.8711 0 43.6244C0 44.3777 0.0140963 45.1239 0.0493369 45.8701C0.0845776 46.7219 0.148011 47.5737 0.22554 48.4115C0.260781 48.8127 0.310118 49.214 0.352407 49.6083C0.401744 49.9884 0.451081 50.3756 0.500418 50.7557C0.556803 51.1289 0.613188 51.4949 0.669573 51.861C2.51618 63.2163 8.1406 73.0227 15.9429 79.4149C18.1983 81.2593 20.6369 82.8152 23.2166 84.0471C24.1328 84.4836 25.0702 84.8849 26.0217 85.2298C29.5669 86.5463 33.3377 87.2503 37.2494 87.2503C37.4185 87.2503 37.5948 87.2432 37.7639 87.2432C67.8454 87.2432 69.6003 60.161 69.6003 60.161V43.6244H44.1707V47.4329H55.9129V58.218C55.9129 63.8921 54.6512 69.5099 52.121 74.5926C49.8797 79.0911 47.2507 82.5688 44.1495 84.0471C40.2308 85.9127 33.387 85.441 29.87 83.6529C21.6307 79.4642 15.9429 63.1951 15.9429 43.6244C15.9429 39.0344 16.2741 34.6134 16.8873 30.481C17.0283 29.5095 17.1904 28.5451 17.3666 27.6017C19.6079 15.5355 24.5416 7.70011 30.3281 4.60259C32.9148 3.21574 40.8369 1.07563 46.3838 3.90564C54.4116 7.99579 54.6794 18.1613 54.6794 18.1613C54.6794 24.6732 50.2321 25.2223 49.4568 25.5883C49.4568 25.5883 51.2329 31.53 57.3577 31.53C67.507 31.53 66.9643 20.1958 66.9643 20.1888C66.9643 11.8607 57.4846 -0.00146484 38.3066 -0.00146484L38.2996 -0.00146484Z" fill="#1D181C"/>
<path d="M400.001 84.0444C397.076 84.0444 394.701 81.672 394.701 78.7504V30.4783H373.754V31.661H377.116C380.041 31.661 382.416 34.0334 382.416 36.9549V78.7434C382.416 81.672 380.041 84.0444 377.109 84.0444H373.754V85.2271H403.356V84.0444H400.001Z" fill="#1D181C"/>
<path d="M374.072 42.8473C375.136 40.8268 375.108 38.3699 373.882 36.441C373.163 35.3146 372.275 34.3079 371.253 33.4491C369.145 31.6962 366.474 30.605 363.542 30.4924C363.535 30.4853 363.521 30.4853 363.514 30.4853C363.352 30.4783 363.19 30.4783 363.028 30.4783H360.716C356.91 30.9007 353.153 33.0901 350.179 36.5255C348.678 38.2573 347.374 40.2988 346.373 42.6009V30.4783H325.426V31.661H328.788C331.72 31.661 334.095 34.0334 334.095 36.962V78.7434C334.095 81.672 331.72 84.0444 328.788 84.0444H325.426V85.2271H355.042V84.0444H351.68C348.748 84.0444 346.373 81.672 346.373 78.7434V47.9371C347.12 45.2338 348.551 42.9669 350.32 41.4111C350.531 41.2211 350.743 41.0521 350.954 40.8832C353.069 39.2781 355.557 38.6374 357.875 39.3555C361.526 40.4819 363.627 44.6283 363.26 49.3169C367.285 49.2535 370.858 47.3316 373.163 44.3749C373.374 44.1004 373.72 43.516 374.072 42.8473Z" fill="#1D181C"/>
<path d="M304.585 30.4796C301.441 29.1913 298.016 28.4873 294.428 28.4873C290.841 28.4873 287.415 29.1913 284.272 30.4796C273.841 34.7528 266.447 45.404 266.447 57.8645C266.447 69.2831 272.65 79.1882 281.714 84.0457C282.524 84.4822 283.363 84.8764 284.216 85.2284C287.38 86.5307 290.82 87.2488 294.428 87.2488C298.037 87.2488 301.477 86.5307 304.641 85.2284C305.494 84.8764 306.333 84.4822 307.143 84.0457C316.207 79.1882 322.417 69.2831 322.417 57.8645C322.417 45.404 315.023 34.7528 304.585 30.4796ZM300.462 84.0457C299.397 84.6652 298.263 85.0313 297.071 85.1298C295.45 85.2636 293.85 84.8764 292.328 84.0457C286.401 80.8355 281.523 70.9798 280.551 58.9909C279.324 43.9186 284.737 31.1765 292.638 30.5359C300.532 29.8953 307.933 41.5955 309.159 56.6748C310.195 69.4803 306.452 80.5962 300.462 84.0457Z" fill="#1D181C"/>
<path d="M153.692 78.8292C153.643 78.8714 153.594 78.9207 153.537 78.97V43.1724C153.537 38.2234 150.648 33.732 146.144 31.6763L145.369 31.3173C144.713 31.0146 144.036 30.7401 143.353 30.4796C142.669 30.2261 141.964 29.9938 141.252 29.7826C138.405 28.9379 135.381 28.4873 132.245 28.4873C124.168 28.4873 118.846 29.7404 110.445 37.1604C106.674 40.4902 107.02 46.5515 111.249 49.283C113.257 50.5783 115.647 51.3316 118.212 51.3316C120.778 51.3316 123.223 50.5642 125.239 49.2407C126.148 48.6494 126.973 47.9524 127.692 47.1569C116.598 40.0326 123.822 32.6056 129.186 31.8242C129.743 31.7397 130.314 31.6904 130.892 31.6904C136.615 31.6904 141.252 35.9636 141.252 41.2435V53.9926C115.844 53.697 105.892 62.3559 104.398 70.0787C104.292 70.6137 104.229 71.1417 104.207 71.6626C104.2 71.8386 104.193 72.0076 104.193 72.1765C104.193 75.0065 105.244 77.6465 107.069 79.8922C108.38 81.5184 110.1 82.9263 112.115 84.0457C112.898 84.4892 113.729 84.8834 114.596 85.2284C117.303 86.3125 120.383 86.925 123.653 86.925C124.668 86.925 125.662 86.8687 126.628 86.756C128.791 86.5026 130.835 85.9746 132.703 85.2284C133.57 84.8834 134.402 84.4892 135.184 84.0457C137.771 82.6096 139.871 80.6877 141.252 78.4631V85.2284H162.2V84.0457H160.17C156.991 84.0457 154.334 81.8141 153.692 78.8292ZM141.252 74.5489C136.749 83.0812 127.671 85.1298 122.878 81.1664C118.085 77.21 118.064 68.0723 124.168 61.9617C127.946 58.1884 135.966 57.421 141.252 57.421V74.5489Z" fill="#1D181C"/>
<path d="M256.883 79.1948C256.721 78.6246 256.637 78.0262 256.637 77.4137V47.0439C256.637 41.3768 254.156 35.9209 249.701 32.4081C248.792 31.69 247.841 31.0423 246.861 30.4791C246.05 30.0075 245.212 29.5851 244.359 29.2261C241.406 27.973 238.241 27.4098 234.992 27.6703C231.898 27.9237 229.001 28.9022 226.393 30.4791C223.955 31.9364 221.77 33.9216 219.902 36.3011C219.444 36.8854 219.007 37.4908 218.591 38.1244C216.258 34.9072 213.439 32.2954 210.309 30.4791C209.435 29.9723 208.533 29.5288 207.617 29.1486C204.713 27.9518 201.619 27.4098 198.44 27.6703C195.346 27.9237 192.449 28.9022 189.835 30.4791C187.318 31.9927 185.07 34.0554 183.16 36.5404V30.4791H162.213V31.6618H165.575C168.5 31.6618 170.875 34.0343 170.875 36.9558V78.7443C170.875 81.6728 168.5 84.0452 165.568 84.0452H162.213V85.2279H191.822V84.0452H189.792C188.242 84.0452 186.811 83.5102 185.683 82.6162H185.676C185 82.0741 184.429 81.4053 184.006 80.645H183.999C183.463 79.6876 183.16 78.5823 183.16 77.4137V49.895C183.16 46.6708 183.773 43.4536 185.084 40.5039C187.537 34.9776 191.364 31.338 195.896 30.9719C198.602 30.7537 201.238 31.7182 203.635 33.6119C206.179 35.6253 207.617 38.7298 207.617 41.9682V78.7443C207.617 81.6728 205.242 84.0452 202.31 84.0452H198.955V85.2279H228.564V84.0452H226.534C223.56 84.0452 221.037 82.0811 220.198 79.3849C220.008 78.7654 219.902 78.1036 219.902 77.4137V47.8887C219.902 45.9668 220.247 44.066 220.924 42.2709L221.023 42.0104C223.13 36.4208 226.534 32.4433 230.686 31.2887C231.256 31.1268 231.848 31.0212 232.448 30.9719C233.949 30.8523 235.429 31.0987 236.86 31.6618C238.065 32.1335 239.228 32.8375 240.341 33.7386C242.914 35.8224 244.359 38.9973 244.359 42.3131V78.7443C244.359 81.6728 241.984 84.0452 239.052 84.0452H235.697V85.2279H265.306V84.0452H263.276C260.231 84.0452 257.659 81.9896 256.883 79.1948ZM219.923 79.8073C219.923 79.8073 219.909 79.8354 219.902 79.8425V79.7721C219.902 79.7721 219.923 79.7932 219.923 79.8073Z" fill="#1D181C"/>
<path d="M94.2752 78.7528V2.01855H73.3281V3.20125H76.683C79.6151 3.20125 81.9903 5.57367 81.9903 8.50224V78.7457C81.9903 81.6743 79.6151 84.0467 76.683 84.0467H73.3281V85.2294H102.937V84.0467H99.5754C96.6504 84.0467 94.2752 81.6743 94.2752 78.7528Z" fill="#1D181C"/>
<path d="M403.245 9.84741H394.703C394.703 17.5983 382.418 25.3421 382.418 25.3421H388.162C398.911 21.2238 403.245 9.84741 403.245 9.84741Z" fill="#1D181C"/>
<path d="M248.504 109.306H8.66992V110.594H248.504V109.306Z" fill="#1D181C"/>
<path d="M265.636 105.722C267.3 105.722 268.603 106.292 269.548 107.426C270.492 108.559 270.965 109.77 270.965 111.051C270.965 112.699 270.351 114.142 269.132 115.388C267.913 116.634 266.56 117.261 265.086 117.261C264.445 117.261 263.832 117.204 263.254 117.092C262.676 116.979 262.338 116.923 262.253 116.923C262.098 116.923 261.901 116.972 261.668 117.063C261.436 117.155 261.302 117.204 261.266 117.204C261.196 117.204 261.09 117.176 260.942 117.127C260.794 117.078 260.724 117.014 260.724 116.944C260.724 116.93 260.752 116.782 260.801 116.514C260.851 116.247 260.907 115.853 260.956 115.332C261.006 114.811 261.034 114.233 261.034 113.593V102.843C261.034 102.252 260.984 101.703 260.879 101.182C260.794 100.907 260.35 100.766 259.554 100.766H259.321C259.215 100.766 259.166 100.675 259.166 100.478C259.166 100.203 259.215 100.062 259.321 100.062C259.843 100.013 260.322 99.9426 260.766 99.8581C261.21 99.7736 261.555 99.6821 261.809 99.5976C262.063 99.5131 262.274 99.4287 262.443 99.3512C262.62 99.2738 262.746 99.2104 262.831 99.1541L262.937 99.0767H262.986C263.057 99.0767 263.127 99.1259 263.191 99.2175C263.261 99.316 263.303 99.4005 263.317 99.492C263.127 100.048 263.028 100.801 263.028 101.752V106.3C263.028 106.49 263.057 106.588 263.106 106.588C263.12 106.588 263.148 106.581 263.183 106.56C263.423 106.384 263.797 106.208 264.304 106.018C264.805 105.828 265.249 105.729 265.629 105.729L265.636 105.722ZM264.805 106.996C264.318 106.996 263.902 107.13 263.557 107.398C263.212 107.665 263.035 108.052 263.035 108.552V114.607C263.035 115.142 263.289 115.536 263.804 115.789C264.318 116.043 264.91 116.169 265.587 116.169C266.574 116.169 267.349 115.705 267.899 114.768C268.455 113.832 268.73 112.776 268.73 111.601C268.73 110.235 268.371 109.122 267.652 108.278C266.933 107.433 265.982 107.004 264.805 107.004V106.996Z" fill="#231F20"/>
<path d="M274.919 105.963C275.215 105.963 275.49 105.956 275.737 105.935C275.99 105.921 276.272 105.9 276.597 105.885C276.914 105.871 277.196 105.85 277.442 105.836C277.478 105.942 277.492 106.068 277.492 106.223C277.492 106.463 277.456 106.589 277.386 106.589C277.245 106.589 277.019 106.653 276.695 106.772C276.371 106.892 276.195 107.012 276.16 107.139V107.188C276.16 107.498 277.09 109.757 278.944 113.967L280.917 108.279C281.037 107.913 281.1 107.645 281.1 107.476C281.1 107.216 280.966 107.005 280.699 106.843C280.431 106.681 280.071 106.596 279.62 106.596C279.55 106.596 279.514 106.484 279.514 106.259C279.514 106.054 279.55 105.914 279.62 105.843C279.846 105.864 280.184 105.885 280.635 105.921C281.086 105.956 281.516 105.97 281.932 105.97C282.313 105.97 282.728 105.956 283.18 105.921C283.631 105.885 283.969 105.857 284.194 105.843C284.23 105.949 284.244 106.076 284.244 106.23C284.244 106.47 284.209 106.596 284.138 106.596C283.913 106.596 283.602 106.674 283.215 106.829C282.827 106.984 282.566 107.237 282.447 107.582L277.795 120.127C277.393 121.197 276.942 121.95 276.442 122.373C275.941 122.795 275.483 123.006 275.06 123.006C274.694 123.006 274.426 122.894 274.257 122.668C274.08 122.443 273.996 122.218 273.996 121.993C273.996 121.612 274.116 121.331 274.362 121.162C275.8 121.162 276.752 120.416 277.224 118.93C277.308 118.67 277.414 118.36 277.534 117.994C277.654 117.628 277.752 117.339 277.823 117.114L274.102 108.026C273.911 107.61 273.735 107.315 273.58 107.146C273.425 106.991 273.185 106.857 272.868 106.758C272.544 106.653 272.29 106.604 272.1 106.604C272.029 106.604 271.994 106.491 271.994 106.266C271.994 106.061 272.029 105.921 272.1 105.85C273.883 105.935 274.82 105.977 274.905 105.977L274.919 105.963Z" fill="#231F20"/>
<path d="M291.3 104.378C291.3 103.047 291.815 101.949 292.837 101.09C293.859 100.231 295.05 99.802 296.396 99.802C296.777 99.802 297.136 99.8231 297.474 99.8654C297.813 99.9076 298.087 99.9569 298.306 100.006C298.524 100.055 298.835 100.14 299.243 100.253C299.652 100.365 300.012 100.457 300.322 100.527C300.526 101.442 300.632 102.681 300.632 104.244C300.632 104.364 300.547 104.427 300.371 104.427C299.955 104.427 299.73 104.343 299.694 104.167C299.61 103.406 299.236 102.667 298.588 101.949C297.939 101.231 297.143 100.872 296.206 100.872C295.162 100.872 294.429 101.133 294.007 101.653C293.584 102.174 293.372 102.815 293.372 103.575C293.372 103.906 293.436 104.223 293.556 104.526C293.675 104.828 293.795 105.082 293.922 105.279C294.042 105.476 294.267 105.708 294.585 105.969C294.902 106.229 295.141 106.412 295.289 106.518C295.437 106.624 295.733 106.814 296.17 107.088C296.614 107.363 296.896 107.539 297.016 107.609C297.101 107.658 297.404 107.849 297.925 108.165C298.447 108.489 298.799 108.714 298.99 108.841C299.18 108.968 299.476 109.207 299.885 109.545C300.294 109.883 300.59 110.179 300.766 110.439C300.949 110.7 301.118 111.023 301.287 111.411C301.449 111.798 301.534 112.199 301.534 112.622C301.534 114.008 300.991 115.142 299.906 116.036C298.82 116.93 297.552 117.373 296.1 117.373C295.684 117.373 295.24 117.345 294.775 117.282C294.31 117.219 293.915 117.162 293.605 117.099C293.295 117.036 292.9 116.951 292.421 116.838C291.941 116.726 291.61 116.655 291.42 116.62C290.99 114.494 290.771 113.114 290.771 112.488C290.771 112.382 290.912 112.333 291.187 112.333C291.497 112.333 291.716 112.41 291.836 112.565C292.428 115.057 293.866 116.303 296.149 116.303C297.016 116.303 297.749 116.043 298.362 115.522C298.968 115.001 299.272 114.269 299.272 113.311C299.272 112.966 299.222 112.643 299.116 112.347C299.011 112.051 298.905 111.812 298.792 111.622C298.679 111.432 298.482 111.228 298.193 111.009C297.904 110.791 297.686 110.629 297.531 110.531C297.376 110.432 297.087 110.263 296.671 110.038C296.255 109.813 295.966 109.658 295.811 109.573C295.311 109.278 294.958 109.073 294.761 108.947C294.563 108.827 294.232 108.616 293.774 108.313C293.316 108.01 292.978 107.743 292.773 107.511C292.569 107.278 292.322 106.99 292.047 106.652C291.772 106.314 291.575 105.955 291.462 105.575C291.349 105.195 291.293 104.793 291.293 104.378H291.3Z" fill="#231F20"/>
<path d="M313.788 108.243V113.438C313.788 114.184 313.852 114.839 313.971 115.409C314.007 115.529 314.098 115.628 314.26 115.698C314.415 115.768 314.578 115.811 314.754 115.825C314.93 115.839 315.099 115.853 315.275 115.853L315.508 115.881C315.557 115.895 315.585 115.994 315.585 116.17C315.585 116.219 315.564 116.303 315.522 116.416C315.48 116.529 315.43 116.585 315.381 116.585C315.12 116.606 314.831 116.634 314.507 116.691C314.183 116.74 313.887 116.803 313.612 116.874C313.337 116.944 313.076 117.014 312.83 117.078C312.59 117.148 312.4 117.205 312.259 117.261L312.026 117.31C311.885 117.31 311.822 117.169 311.822 116.895V115.571L311.772 115.445C310.631 116.677 309.496 117.289 308.368 117.289C307.727 117.289 307.177 117.127 306.719 116.81C306.261 116.486 305.922 116.064 305.704 115.536C305.485 115.008 305.337 114.494 305.246 114.001C305.154 113.509 305.119 112.995 305.119 112.453V109.179C305.119 108.503 304.999 108.039 304.752 107.778C304.576 107.567 304.365 107.426 304.118 107.349C303.864 107.271 303.66 107.229 303.491 107.229C303.322 107.229 303.244 107.215 303.244 107.18C303.244 106.764 303.293 106.546 303.399 106.532C305.239 106.258 306.43 106.032 306.987 105.856C307.001 105.856 307.05 105.849 307.114 105.828C307.184 105.828 307.226 105.906 307.24 106.046C307.255 106.194 307.255 106.3 307.24 106.37C307.135 107.201 307.085 107.842 307.085 108.292V111.798C307.085 113.128 307.283 114.114 307.684 114.748C308.086 115.381 308.735 115.698 309.637 115.698C310.158 115.698 310.652 115.494 311.117 115.086C311.582 114.677 311.822 114.325 311.822 114.037V109.179C311.822 108.503 311.702 108.039 311.455 107.778C311.279 107.567 311.068 107.426 310.821 107.349C310.567 107.271 310.363 107.229 310.194 107.229C310.024 107.229 309.947 107.215 309.947 107.18C309.947 106.764 309.996 106.546 310.102 106.532C311.942 106.258 313.133 106.032 313.689 105.856C313.704 105.856 313.753 105.849 313.816 105.828C313.887 105.828 313.929 105.906 313.943 106.046C313.957 106.194 313.957 106.3 313.943 106.37C313.837 107.201 313.788 107.827 313.788 108.243Z" fill="#231F20"/>
<path d="M318.181 114.086V102.843C318.181 102.252 318.132 101.703 318.026 101.182C317.942 100.907 317.498 100.766 316.701 100.766H316.469C316.363 100.766 316.314 100.675 316.314 100.478C316.314 100.203 316.363 100.062 316.469 100.062C316.99 100.013 317.47 99.9426 317.914 99.8581C318.358 99.7736 318.703 99.6821 318.957 99.5976C319.21 99.5131 319.422 99.4287 319.591 99.3512C319.767 99.2738 319.894 99.2104 319.979 99.1541L320.084 99.0767H320.134C320.204 99.0767 320.275 99.1259 320.345 99.2175C320.416 99.316 320.458 99.4005 320.472 99.492C320.282 100.048 320.183 100.801 320.183 101.752V113.593C320.183 114.599 320.254 115.367 320.395 115.902C320.43 116.022 320.655 116.141 321.071 116.254C321.487 116.366 321.783 116.423 321.952 116.423C322.002 116.423 322.037 116.528 322.058 116.733C322.072 116.937 322.065 117.085 322.03 117.176C320.296 117.092 319.366 117.049 319.246 117.049C319.14 117.049 318.196 117.092 316.412 117.176C316.342 117.106 316.307 116.965 316.307 116.747C316.307 116.528 316.342 116.423 316.412 116.423C316.624 116.423 316.927 116.366 317.336 116.254C317.744 116.141 317.963 116.022 317.998 115.902C318.118 115.402 318.181 114.797 318.181 114.086Z" fill="#231F20"/>
<path d="M324.707 114.086V102.843C324.707 102.252 324.658 101.703 324.552 101.182C324.467 100.907 324.023 100.766 323.227 100.766H322.994C322.888 100.766 322.839 100.675 322.839 100.478C322.839 100.203 322.888 100.062 322.994 100.062C323.516 100.013 323.995 99.9426 324.439 99.8581C324.883 99.7736 325.228 99.6821 325.482 99.5976C325.736 99.5131 325.947 99.4287 326.116 99.3512C326.293 99.2738 326.42 99.2104 326.504 99.1541L326.61 99.0767H326.659C326.73 99.0767 326.8 99.1259 326.871 99.2175C326.941 99.316 326.983 99.4005 326.997 99.492C326.807 100.048 326.709 100.801 326.709 101.752V113.593C326.709 114.599 326.779 115.367 326.92 115.902C326.955 116.022 327.181 116.141 327.597 116.254C328.012 116.366 328.308 116.423 328.478 116.423C328.527 116.423 328.562 116.528 328.583 116.733C328.597 116.937 328.59 117.085 328.555 117.176C326.821 117.092 325.891 117.049 325.771 117.049C325.665 117.049 324.721 117.092 322.938 117.176C322.867 117.106 322.832 116.965 322.832 116.747C322.832 116.528 322.867 116.423 322.938 116.423C323.149 116.423 323.452 116.366 323.861 116.254C324.27 116.141 324.488 116.022 324.524 115.902C324.643 115.402 324.707 114.797 324.707 114.086Z" fill="#231F20"/>
<path d="M331.937 105.963C332.233 105.963 332.508 105.956 332.754 105.935C333.008 105.921 333.29 105.9 333.614 105.885C333.931 105.871 334.213 105.85 334.46 105.836C334.495 105.942 334.509 106.068 334.509 106.223C334.509 106.463 334.474 106.589 334.404 106.589C334.263 106.589 334.037 106.653 333.713 106.772C333.389 106.892 333.212 107.012 333.177 107.139V107.188C333.177 107.498 334.108 109.757 335.961 113.967L337.935 108.279C338.054 107.913 338.118 107.645 338.118 107.476C338.118 107.216 337.984 107.005 337.716 106.843C337.448 106.681 337.089 106.596 336.638 106.596C336.567 106.596 336.532 106.484 336.532 106.259C336.532 106.054 336.567 105.914 336.638 105.843C336.863 105.864 337.202 105.885 337.653 105.921C338.104 105.956 338.534 105.97 338.95 105.97C339.33 105.97 339.746 105.956 340.197 105.921C340.648 105.885 340.986 105.857 341.212 105.843C341.247 105.949 341.261 106.076 341.261 106.23C341.261 106.47 341.226 106.596 341.156 106.596C340.93 106.596 340.62 106.674 340.232 106.829C339.845 106.984 339.584 107.237 339.464 107.582L334.812 120.127C334.411 121.197 333.96 121.95 333.459 122.373C332.959 122.795 332.501 123.006 332.078 123.006C331.711 123.006 331.443 122.894 331.274 122.668C331.098 122.443 331.013 122.218 331.013 121.993C331.013 121.612 331.133 121.331 331.38 121.162C332.818 121.162 333.769 120.416 334.241 118.93C334.326 118.67 334.432 118.36 334.552 117.994C334.671 117.628 334.77 117.339 334.841 117.114L331.119 108.026C330.929 107.61 330.753 107.315 330.598 107.146C330.442 106.991 330.203 106.857 329.886 106.758C329.561 106.653 329.308 106.604 329.117 106.604C329.047 106.604 329.012 106.491 329.012 106.266C329.012 106.061 329.047 105.921 329.117 105.85C330.901 105.935 331.838 105.977 331.923 105.977L331.937 105.963Z" fill="#231F20"/>
<path d="M354.767 100.063C355.93 100.063 356.846 100.317 357.523 100.831C358.2 101.344 358.538 102.056 358.538 102.971C358.538 104.027 358.2 104.928 357.523 105.674C356.846 106.42 355.895 107.173 354.661 107.934C355.669 109.63 356.952 111.355 358.51 113.101C358.94 112.446 359.299 111.813 359.574 111.207C359.849 110.602 359.99 110.222 359.99 110.067C359.99 109.912 359.905 109.799 359.743 109.743C359.581 109.687 359.391 109.644 359.186 109.637C358.982 109.63 358.855 109.616 358.82 109.602C358.785 109.532 358.77 109.426 358.77 109.292C358.77 109.159 358.799 109.06 358.848 109.004H360.899C361.16 109.004 361.435 108.997 361.717 108.976C362.006 108.962 362.344 108.94 362.731 108.926C363.119 108.912 363.464 108.891 363.76 108.877C363.845 108.926 363.887 109.039 363.887 109.215C363.887 109.475 363.838 109.602 363.732 109.602C363.507 109.602 363.19 109.651 362.767 109.757C362.351 109.863 362.076 109.954 361.935 110.046C361.921 110.06 361.794 110.257 361.569 110.63C361.343 111.003 361.012 111.51 360.582 112.151C360.145 112.791 359.701 113.383 359.229 113.918C359.63 114.333 359.905 114.622 360.06 114.776C360.215 114.931 360.427 115.128 360.687 115.361C360.948 115.593 361.153 115.748 361.315 115.825C361.47 115.903 361.625 115.945 361.78 115.945C362.02 115.945 362.287 115.797 362.576 115.502C362.865 115.206 363.049 114.96 363.133 114.748C363.274 114.748 363.408 114.798 363.535 114.903C363.662 115.009 363.732 115.107 363.732 115.213C363.662 115.354 363.584 115.488 363.5 115.628C363.415 115.769 363.26 115.966 363.042 116.227C362.823 116.487 362.527 116.698 362.161 116.86C361.787 117.022 361.364 117.107 360.899 117.107C360.434 117.107 359.969 116.952 359.468 116.642C358.968 116.332 358.587 116.015 358.326 115.706L357.911 115.241C356.416 116.536 354.845 117.191 353.181 117.191C351.638 117.191 350.411 116.818 349.502 116.072C348.593 115.326 348.135 114.305 348.135 113.009C348.135 111.883 348.515 110.947 349.277 110.194C350.038 109.44 351.095 108.715 352.448 108.025C352.117 107.469 351.87 107.026 351.708 106.688C351.546 106.35 351.377 105.899 351.201 105.322C351.025 104.752 350.94 104.189 350.94 103.632C350.94 102.647 351.306 101.809 352.032 101.112C352.758 100.422 353.668 100.07 354.76 100.07L354.767 100.063ZM357.318 114.636C356.818 114.136 356.212 113.404 355.5 112.453C354.788 111.503 354.21 110.679 353.759 109.989L353.054 108.948C352.427 109.384 351.969 109.715 351.673 109.947C351.377 110.179 351.088 110.539 350.799 111.024C350.51 111.51 350.369 112.045 350.369 112.636C350.369 113.777 350.721 114.636 351.433 115.206C352.145 115.776 353.019 116.065 354.062 116.065C354.598 116.065 355.176 115.938 355.789 115.678C356.402 115.417 356.91 115.072 357.311 114.636H357.318ZM354.901 101C354.33 101 353.844 101.183 353.442 101.556C353.04 101.929 352.843 102.407 352.843 102.999C352.843 104.104 353.294 105.477 354.196 107.103C355.098 106.582 355.754 106.061 356.163 105.533C356.571 105.005 356.776 104.273 356.776 103.337C356.776 102.71 356.6 102.168 356.254 101.704C355.909 101.239 355.458 101 354.901 101Z" fill="#231F20"/>
<path d="M386.617 112.345C386.617 112.535 386.497 113.197 386.251 114.331C386.011 115.464 385.835 116.055 385.729 116.112C384.461 116.872 382.395 117.252 379.513 117.252C377.222 117.252 375.277 116.414 373.677 114.732C372.07 113.056 371.273 111.05 371.273 108.734C371.273 106.277 372.098 104.165 373.74 102.412C375.39 100.652 377.405 99.7793 379.802 99.7793C381.846 99.7793 383.953 99.9975 386.117 100.427C386.082 102.75 386.067 103.996 386.067 104.165C386.067 104.426 385.884 104.552 385.525 104.552C385.349 104.552 385.236 104.51 385.186 104.426C385.137 104.2 385.067 103.968 384.989 103.736C384.912 103.503 384.749 103.201 384.496 102.828C384.242 102.454 383.939 102.138 383.587 101.87C383.234 101.603 382.727 101.37 382.078 101.166C381.43 100.969 380.697 100.87 379.879 100.87C378.181 100.87 376.736 101.617 375.538 103.116C374.339 104.616 373.74 106.305 373.74 108.192C373.74 109.593 373.98 110.881 374.466 112.064C374.953 113.239 375.721 114.218 376.764 114.985C377.814 115.753 379.055 116.14 380.492 116.14C382.205 116.14 383.537 115.64 384.468 114.633C384.707 114.373 384.926 114.035 385.102 113.606C385.285 113.183 385.426 112.824 385.518 112.543C385.609 112.254 385.687 112.113 385.736 112.113C385.842 112.113 385.969 112.127 386.117 112.162C386.265 112.198 386.378 112.233 386.469 112.268L386.596 112.345H386.617Z" fill="#231F20"/>
<path d="M393.792 105.749C395.35 105.749 396.689 106.312 397.795 107.438C398.902 108.564 399.459 109.916 399.459 111.486C399.459 113.056 398.916 114.443 397.831 115.576C396.745 116.71 395.42 117.28 393.841 117.28C392.263 117.28 390.923 116.717 389.81 115.576C388.703 114.443 388.146 113.077 388.146 111.486C388.146 109.895 388.682 108.515 389.76 107.41C390.832 106.305 392.178 105.749 393.792 105.749ZM393.503 106.762C392.587 106.762 391.833 107.185 391.255 108.022C390.677 108.86 390.381 109.888 390.381 111.099C390.381 112.521 390.747 113.732 391.487 114.745C392.22 115.759 393.087 116.266 394.074 116.266C394.99 116.266 395.744 115.837 396.336 114.971C396.928 114.105 397.217 113.063 397.217 111.852C397.217 110.451 396.844 109.254 396.097 108.255C395.35 107.262 394.483 106.762 393.496 106.762H393.503Z" fill="#231F20"/>
<path d="M402.441 117.007C402.137 116.705 401.982 116.346 401.982 115.93C401.982 115.515 402.13 115.163 402.441 114.881C402.744 114.593 403.103 114.452 403.519 114.452C403.935 114.452 404.287 114.593 404.569 114.881C404.858 115.17 404.999 115.515 404.999 115.93C404.999 116.346 404.858 116.705 404.569 117.007C404.28 117.31 403.935 117.465 403.519 117.465C403.103 117.465 402.744 117.31 402.441 117.007Z" fill="#231F20"/>
</g>
<defs>
<clipPath id="clip0_5292_17309">
<rect width="405" height="123" fill="white"/>
</clipPath>
</defs>
</svg>
